999
"DXF R12 Output" (www.mydxf.blogspot.com)
 0 
SECTION
 2 
HEADER
 9 
$ACADVER
 1 
AC1009
 9 
$EXTMIN
 10 
 0 
 20 
 0 
 9 
$EXTMAX
 10 
 8.5 
 20 
 11 
 0 
ENDSEC
 0 
SECTION
 2 
ENTITIES
0
LINE
8
Layer 1
10
60.321500
20
30.166000
11
57.175600
21
27.016600
0
LINE
8
Layer 1
10
57.175600
20
27.016600
11
45.240300
21
38.951900
0
LINE
8
Layer 1
10
45.240300
20
38.951900
11
45.240300
21
45.247200
0
LINE
8
Layer 1
10
45.240300
20
45.247200
11
60.321500
21
30.166000
0
LINE
8
Layer 1
10
60.321500
20
30.166000
11
60.321500
21
30.166000
0
LINE
8
Layer 1
10
30.172800
20
60.325000
11
27.026900
21
57.179100
0
LINE
8
Layer 1
10
27.026900
20
57.179100
11
38.958800
21
45.247200
0
LINE
8
Layer 1
10
38.958800
20
45.247200
11
45.254000
21
45.247200
0
LINE
8
Layer 1
10
45.254000
20
45.247200
11
30.172800
21
60.325000
0
LINE
8
Layer 1
10
30.172800
20
60.325000
11
30.172800
21
60.325000
0
LINE
8
Layer 1
10
23.421200
20
53.573500
11
20.271800
21
50.424100
0
LINE
8
Layer 1
10
20.271800
20
50.424100
11
25.452100
21
45.247200
0
LINE
8
Layer 1
10
25.452100
20
45.247200
11
31.747300
21
45.247200
0
LINE
8
Layer 1
10
31.747300
20
45.247200
11
23.421200
21
53.573500
0
LINE
8
Layer 1
10
23.421200
20
53.573500
11
23.421200
21
53.573500
0
LINE
8
Layer 1
10
45.254000
20
31.737300
11
45.254000
21
25.441800
0
LINE
8
Layer 1
10
45.254000
20
25.441800
11
50.413600
21
20.265000
0
LINE
8
Layer 1
10
50.413600
20
20.265000
11
53.563000
21
23.410900
0
LINE
8
Layer 1
10
53.563000
20
23.410900
11
45.254000
21
31.737300
0
LINE
8
Layer 1
10
45.254000
20
31.737300
11
45.254000
21
31.737300
0
LINE
8
Layer 1
10
43.439200
20
20.045400
11
45.240300
21
21.846700
0
LINE
8
Layer 1
10
45.240300
20
21.846700
11
21.832800
21
21.846700
0
LINE
8
Layer 1
10
21.832800
20
21.846700
11
21.832800
21
45.247200
0
LINE
8
Layer 1
10
21.832800
20
45.247200
11
20.031700
21
43.442700
0
LINE
8
Layer 1
10
20.031700
20
43.442700
11
16.652500
21
46.804700
0
LINE
8
Layer 1
10
16.652500
20
46.804700
11
13.506500
21
43.658800
0
LINE
8
Layer 1
10
13.506500
20
43.658800
11
16.882300
21
40.279600
0
LINE
8
Layer 1
10
16.882300
20
40.279600
11
15.077800
21
38.492200
0
LINE
8
Layer 1
10
15.077800
20
38.492200
11
15.077800
21
34.886600
0
LINE
8
Layer 1
10
15.077800
20
34.886600
11
9.900910
21
40.066900
0
LINE
8
Layer 1
10
9.900910
20
40.066900
11
6.751550
21
36.917500
0
LINE
8
Layer 1
10
6.751550
20
36.917500
11
15.077800
21
28.591200
0
LINE
8
Layer 1
10
15.077800
20
28.591200
11
15.077800
21
21.386800
0
LINE
8
Layer 1
10
15.077800
20
21.386800
11
3.145920
21
33.311900
0
LINE
8
Layer 1
10
3.145920
20
33.311900
11
0.000000
21
30.166000
0
LINE
8
Layer 1
10
0.000000
20
30.166000
11
30.172800
21
0.003516
0
LINE
8
Layer 1
10
30.172800
20
0.003516
11
33.322100
21
3.149410
0
LINE
8
Layer 1
10
33.322100
20
3.149410
11
21.386800
21
15.084700
0
LINE
8
Layer 1
10
21.386800
20
15.084700
11
28.591100
21
15.084700
0
LINE
8
Layer 1
10
28.591100
20
15.084700
11
36.917500
21
6.755140
0
LINE
8
Layer 1
10
36.917500
20
6.755140
11
40.066900
21
9.904480
0
LINE
8
Layer 1
10
40.066900
20
9.904480
11
34.886600
21
15.084700
0
LINE
8
Layer 1
10
34.886600
20
15.084700
11
38.492100
21
15.084700
0
LINE
8
Layer 1
10
38.492100
20
15.084700
11
40.293300
21
16.885800
0
LINE
8
Layer 1
10
40.293300
20
16.885800
11
43.672300
21
13.509900
0
LINE
8
Layer 1
10
43.672300
20
13.509900
11
46.818500
21
16.656100
0
LINE
8
Layer 1
10
46.818500
20
16.656100
11
43.439200
21
20.045400
0
LINE
8
Layer 1
10
43.439200
20
20.045400
11
43.439200
21
20.045400
 0 
ENDSEC
 0 
EOF